<svg xmlns="http://www.w3.org/2000/svg" viewBox="0 0 54.008 54.008" style="enable-background:new 0 0 54.008 54.008" xml:space="preserve">
  <circle style="fill:#010002" cx="27.225" cy="5.077" r="5.077"/>
  <path style="fill:#010002" d="M38.317 11.141H15.692c-.827 0-1.5.673-1.5 1.5v15.78c0 .827.673 1.5 1.5 1.5h5.531l.011 4.107v17.205c0 1.531 1.173 2.773 2.41 2.773 1.24 0 2.246-1.242 2.246-2.773V36.019h2.792v15.215c0 1.533 1.006 2.774 2.244 2.774 1.238 0 2.291-1.241 2.291-2.774l.025-17.391v-3.922h5.074c.826 0 1.5-.673 1.5-1.5v-15.78a1.501 1.501 0 0 0-1.499-1.5zm-10.711 5.122h4.637c.158 0 .298.059.393.165a.512.512 0 0 1 .116.408l-.103.854-4.461.44a8.319 8.319 0 0 1-.583.032l.001-1.899zm.002 4.862c.247-.007.485-.017.683-.038l4.005-.414-.175 1.46-3.903.419a7.89 7.89 0 0 1-.609.035l-.001-1.462zm.605-.784a9.668 9.668 0 0 1-.605.034v-1.463c.237-.007.468-.017.657-.036l4.295-.425-.174 1.458-4.173.432zm-1.354 6.328h-3.304a.782.782 0 0 1-.746-.663l-.111-.928 3.753.429c.122.014.264.022.408.03v1.132zm0-1.883c-.113-.008-.229-.015-.322-.025l-3.93-.449-.17-1.421 3.793.407c.183.019.401.03.629.037v1.451zm0-2.2a7.996 7.996 0 0 1-.549-.034l-3.964-.426-.175-1.458 4.053.419c.184.02.405.03.635.037v1.462zm0-2.212a9.06 9.06 0 0 1-.558-.033l-4.221-.437-.174-1.453 4.296.425c.189.02.42.029.657.036v1.462zm0-2.213a9.058 9.058 0 0 1-.583-.032l-4.46-.44-.101-.853a.513.513 0 0 1 .117-.409.513.513 0 0 1 .392-.165h4.635v1.899zm0-2.648h-4.635c-.376 0-.715.148-.953.417a1.254 1.254 0 0 0-.301.996l1.095 9.168a1.52 1.52 0 0 0 1.49 1.324h3.304v1.502h-7.958a.613.613 0 0 1-.269-.5V15.177c0-.345.28-.625.625-.625h7.602v.961zm0-1.712h-7.602c-.758 0-1.375.617-1.375 1.375v13.245c0 .178.036.346.097.5h-2.285a.501.501 0 0 1-.5-.5v-15.78c0-.275.225-.5.5-.5h11.165v1.66zm.747 9.536a9.42 9.42 0 0 0 .69-.039l3.732-.4-.176 1.473-3.418.391a8.775 8.775 0 0 1-.829.043l.001-1.468zm.001 2.216c.332-.003.656-.018.916-.046l3.24-.37-.104.87a.783.783 0 0 1-.746.662h-3.305v-1.116h-.001zm7.922 3.368h-7.92v-1.502h3.305a1.52 1.52 0 0 0 1.49-1.322l1.095-9.172a1.248 1.248 0 0 0-.301-.995 1.252 1.252 0 0 0-.953-.417h-4.636v-.961h7.564c.346 0 .625.28.625.625v13.244h.002c0 .21-.112.387-.271.5zm3.292-.5a.504.504 0 0 1-.501.5h-1.868c.062-.154.098-.322.098-.5V15.177c0-.758-.617-1.375-1.375-1.375h-7.563v-1.66h10.71c.275 0 .5.225.5.5l-.001 15.779z"/>
</svg>
